<svg width="14" height="14" fill="none" xmlns="http://www.w3.org/2000/svg"><path d="M2.714 1V.5 1Zm8.572 0V.5 1ZM1 11.286H.5 1Zm2.929-.913a.5.5 0 0 0 1 0h-1Zm1-6.802a.5.5 0 0 0-1 0h1ZM6.5 10.416a.5.5 0 1 0 1 0h-1ZM7.5 7a.5.5 0 0 0-1 0h1Zm1.571 3.429a.5.5 0 0 0 1 0h-1Zm1-5.143a.5.5 0 1 0-1 0h1ZM2.714 1.5h8.572v-1H2.714v1Zm8.572 0c.322 0 .63.128.858.356l.707-.707A2.214 2.214 0 0 0 11.287.5v1Zm.858.356c.228.227.356.536.356.858h1c0-.587-.233-1.15-.649-1.565l-.707.707Zm.356.858v8.572h1V2.714h-1Zm0 8.572c0 .322-.128.63-.356.858l.707.707c.416-.415.649-.978.649-1.565h-1Zm-.356.858a1.214 1.214 0 0 1-.858.356v1c.587 0 1.15-.233 1.566-.649l-.708-.707Zm-.858.356H2.714v1h8.572v-1Zm-8.572 0c-.322 0-.63-.128-.858-.356l-.707.707c.415.416.978.649 1.565.649v-1Zm-.858-.356a1.214 1.214 0 0 1-.356-.858h-1c0 .587.233 1.15.649 1.566l.707-.708Zm-.356-.858V2.714h-1v8.572h1Zm0-8.572c0-.322.128-.63.356-.858l-.707-.707A2.214 2.214 0 0 0 .5 2.714h1Zm.356-.858c.227-.228.536-.356.858-.356v-1c-.587 0-1.15.233-1.565.649l.707.707Zm3.073 8.517V3.57h-1v6.802h1Zm2.571.043V7h-1v3.416h1Zm2.571.013V5.286h-1v5.143h1Z" fill="#FF855F"/></svg>
